<?xml version="1.0" standalone="no"?>
<!DOCTYPE svg PUBLIC "-//W3C//DTD SVG 20010904//EN"
 "http://www.w3.org/TR/2001/REC-SVG-20010904/DTD/svg10.dtd">
<svg version="1.0" xmlns="http://www.w3.org/2000/svg"
 width="310.000000pt" height="310.000000pt" viewBox="0 0 310.000000 310.000000"
 preserveAspectRatio="xMidYMid meet">
<metadata>
Created by potrace 1.14, written by Peter Selinger 2001-2017
</metadata>
<g transform="translate(0.000000,310.000000) scale(0.100000,-0.100000)"
fill="#000000" stroke="none">
<path d="M470 2621 c0 -6 4 -12 9 -15 5 -3 8 -35 7 -70 -2 -38 1 -63 7 -59 5
3 4 -4 -2 -16 -9 -16 -9 -21 1 -21 8 0 9 -3 3 -8 -13 -9 -15 -83 -2 -75 6 3 7
1 3 -5 -13 -21 -14 -122 -2 -115 6 3 5 0 -1 -8 -15 -16 -17 -33 -3 -24 6 3 10
1 10 -4 0 -6 -3 -11 -7 -11 -10 0 -9 -273 1 -288 4 -7 3 -12 -2 -12 -10 0 -9
-30 2 -48 4 -6 3 -12 -2 -12 -10 0 -9 -30 2 -48 4 -6 3 -12 -2 -12 -10 0 -9
-30 2 -48 4 -6 3 -12 -1 -12 -9 0 -9 -151 1 -176 3 -8 2 -13 -2 -10 -6 4 -8
-118 -2 -134 1 -3 1 -9 0 -15 -6 -28 -5 -97 2 -101 5 -3 5 -10 2 -16 -11 -17
-10 -98 1 -98 6 0 7 -3 0 -8 -13 -9 -15 -123 -2 -115 5 3 4 -4 -2 -15 -14 -26
-14 -35 -1 -27 6 4 7 -2 2 -17 -9 -26 -9 -459 0 -474 7 -11 2103 -13 2114 -1
10 10 9 70 -1 87 -5 9 -4 11 3 6 14 -9 15 3 2 24 -5 8 -5 19 0 25 12 15 12 17
1 47 -7 18 -7 29 0 34 6 4 5 11 -3 22 -10 12 -10 14 0 8 15 -9 15 -1 2 24 -7
13 -7 21 0 25 8 5 7 12 -2 23 -10 12 -10 14 0 8 15 -9 15 -1 2 24 -7 13 -7 21
0 25 8 5 7 12 -2 23 -10 12 -10 14 0 8 15 -9 15 -1 2 24 -7 13 -7 21 0 25 8 5
7 12 -2 23 -7 9 -8 13 -3 10 6 -4 10 9 10 32 0 21 -4 36 -9 33 -5 -4 -6 -1 -1
7 12 19 14 80 2 73 -6 -4 -7 -1 -2 7 12 19 14 80 2 73 -6 -4 -7 -1 -2 7 12 19
12 70 0 70 -5 0 -4 4 4 9 10 6 11 13 2 29 -8 14 -8 23 -1 27 8 5 7 12 -2 23
-10 12 -10 14 0 8 15 -9 15 -1 2 24 -7 13 -7 21 0 25 8 5 7 12 -2 23 -7 9 -8
13 -2 9 7 -4 10 6 10 28 -1 19 -5 35 -11 35 -6 0 -6 3 1 8 13 9 13 64 -1 74
-7 5 -6 8 1 8 13 0 13 70 -1 70 -6 0 -6 3 1 8 13 9 13 64 -1 74 -7 5 -6 8 1 8
13 0 13 70 -1 70 -6 0 -6 3 1 8 13 9 13 64 -1 74 -7 5 -7 8 0 8 6 0 10 18 10
39 0 22 -4 37 -9 34 -5 -4 -6 -1 -1 7 12 19 14 80 2 73 -6 -4 -7 -1 -2 7 12
19 12 70 0 70 -5 0 -4 4 4 9 10 6 11 13 2 29 -8 14 -8 23 -1 27 8 5 7 12 -2
23 -10 12 -10 14 0 8 14 -8 16 3 2 24 -5 8 -5 19 0 25 12 15 12 17 1 47 -6 16
-6 30 -1 33 8 5 4 50 -6 66 -2 4 0 10 5 13 5 4 7 18 5 32 -6 35 -7 38 -4 44 8
23 7 47 -3 48 -7 1 -23 3 -37 5 -14 2 -32 0 -41 -5 -9 -4 -19 -4 -23 -1 -9 9
-135 10 -130 1 3 -4 -2 -5 -10 -2 -25 10 -176 10 -176 1 0 -4 -6 -5 -12 -1
-19 12 -48 12 -48 1 0 -6 -5 -6 -12 -1 -7 5 -26 8 -43 7 -44 -5 -47 -4 -77 0
-16 2 -28 0 -28 -5 0 -5 -6 -6 -12 -2 -18 11 -48 12 -48 2 0 -5 -5 -6 -12 -2
-6 4 -39 7 -72 6 -81 -3 -72 -3 -149 0 -40 2 -67 -1 -67 -7 0 -5 -5 -3 -10 5
-8 12 -10 12 -10 1 0 -11 -3 -11 -15 -1 -12 10 -15 10 -15 -1 0 -9 -3 -10 -8
-4 -8 12 -42 16 -42 6 0 -4 -10 -7 -22 -5 -13 1 -23 3 -23 4 0 1 -15 2 -33 3
-17 1 -32 -2 -32 -8 0 -7 -3 -7 -8 0 -9 13 -42 15 -42 3 0 -6 -6 -5 -15 2 -12
10 -15 10 -15 0 0 -9 -3 -10 -13 -1 -10 8 -17 7 -27 -2 -10 -9 -11 -9 -6 1 9
14 9 14 -32 3 -18 -6 -30 -6 -28 -2 6 9 -101 4 -117 -6 -6 -3 -7 -1 -3 5 9 14
9 14 -32 3 -18 -6 -30 -7 -28 -3 2 4 -20 7 -49 7 -29 0 -51 -3 -49 -7 2 -4 -8
-4 -23 0 -16 4 -117 7 -225 7 -109 0 -198 3 -198 8 0 4 -4 7 -10 7 -5 0 -10
-4 -10 -9z"/>
</g>
</svg>
